0.06m3min_grf.mot
version=1
nRows=12
nColumns 19
inDegrees=yes
endheader
time	1_ground_force_vx	1_ground_force_vy	1_ground_force_vz	1_ground_force_px	1_ground_force_py	1_ground_force_pz	1_ground_torque_x	1_ground_torque_y	1_ground_torque_z	2_ground_force_vx	2_ground_force_vy	2_ground_force_vz	2_ground_force_px	2_ground_force_py	2_ground_force_pz	2_ground_torque_x	2_ground_torque_y	2_ground_torque_z
            1.253500	            0.229548	            3.783854	            0.428367	           -0.233013	            0.005581	           -0.255695	            0.355806	           -0.240703	            0.139310	            0.553462	            2.218002	           -1.728694	           -0.232311	            0.006130	           -0.833667	           -0.319262	           -0.056928	           -0.263969
            1.254000	            0.184227	            3.422527	            0.610358	           -0.233013	            0.005581	           -0.255695	            0.422876	           -0.221493	           -0.031899	            0.322495	            1.296750	           -1.825736	           -0.232311	            0.006130	           -0.833667	           -0.169151	            0.000062	           -0.188430
            1.254500	            0.229956	            3.422733	            0.564388	           -0.233013	            0.005581	           -0.255695	            0.406243	           -0.175582	            0.045487	            0.134492	            1.479719	           -1.684215	           -0.232311	            0.006130	           -0.833667	           -0.075231	           -0.008716	           -0.282755
            1.255000	            0.366068	            4.326250	            0.063497	           -0.233013	            0.005581	           -0.255695	            0.464730	           -0.175525	            0.051174	            0.089534	            0.927942	           -1.920807	           -0.232311	            0.006130	           -0.833667	           -0.169286	            0.028689	           -0.263730
            1.255500	            0.366683	            5.947069	            0.437301	           -0.233013	            0.005581	           -0.255695	            0.373054	           -0.194178	            0.088860	            0.369201	            1.298091	           -2.154253	           -0.232311	            0.006130	           -0.833667	           -0.187902	           -0.009459	           -0.188456
            1.256000	            0.275113	            4.685388	            0.386262	           -0.233013	            0.005581	           -0.255695	            0.394636	           -0.231272	            0.103581	            0.321083	            1.665716	           -2.012134	           -0.232311	            0.006130	           -0.833667	           -0.206559	           -0.047270	           -0.207433
            1.256500	            0.183101	            5.226560	            0.297096	           -0.233013	            0.005581	           -0.255695	            0.397902	           -0.193859	           -0.012984	            0.273569	            1.849695	           -2.011457	           -0.232311	            0.006130	           -0.833667	           -0.225327	           -0.056656	           -0.245159
            1.257000	            0.183541	            4.685173	            0.432345	           -0.233013	            0.005581	           -0.255695	            0.411158	           -0.203095	           -0.013037	            0.229460	            1.112263	           -1.826353	           -0.232311	            0.006130	           -0.833667	           -0.093701	           -0.093925	           -0.264200
            1.257500	            0.366928	            5.225809	            0.480065	           -0.233013	            0.005581	           -0.255695	            0.409019	           -0.230982	            0.051042	            0.370571	            0.929459	           -2.061711	           -0.232311	            0.006130	           -0.833667	           -0.150408	            0.009650	           -0.207255
            1.258000	            0.137258	            5.226551	            0.297210	           -0.233013	            0.005581	           -0.255695	            0.379170	           -0.184721	            0.003945	            0.505242	            2.586465	           -1.821216	           -0.232311	            0.006130	           -0.833667	           -0.188003	            0.009716	           -0.263789
            1.258500	            0.366490	            4.505730	            0.247693	           -0.233013	            0.005581	           -0.255695	            0.344022	           -0.184544	           -0.004966	            0.322392	            1.297587	           -2.060377	           -0.232311	            0.006130	           -0.833667	           -0.187927	           -0.009257	           -0.245006
            1.259000	            0.412513	            4.145011	            0.291890	           -0.233013	            0.005581	           -0.255695	            0.417204	           -0.174941	           -0.078331	            0.508360	            1.667397	           -2.293783	           -0.232311	            0.006130	           -0.833667	           -0.225575	            0.018764	           -0.188339
